<?xml version="1.0" encoding="utf-8"?>
<!-- Generator: Adobe Illustrator 23.0.5, SVG Export Plug-In . SVG Version: 6.00 Build 0)  -->
<svg version="1.1" id="Calque_1" xmlns="http://www.w3.org/2000/svg" xmlns:xlink="http://www.w3.org/1999/xlink" x="0px"
     y="0px"
     viewBox="0 0 34 34" style="enable-background:new 0 0 34 34;" xml:space="preserve">
<style type="text/css">
	.st0{fill:#009EE0;}
</style>
    <path class="st0" d="M17.2,0.1c7.8,0,14.2,5.5,15.7,12.8h-6.5c-0.5-1.4-1.3-2.6-2.3-3.7c-1.8-1.8-4.1-2.8-6.8-2.8s-5.1,1.1-6.8,2.8
	c-1.8,1.8-2.8,4.2-2.8,6.8c0,2.7,1.1,5.1,2.8,6.8c1.8,1.8,4.1,2.8,6.8,2.8s5.1-1.1,6.8-2.8c1-1,1.8-2.3,2.3-3.6h6.5v8.1
	c0,6.9-5.9,6.5-5.9,6.5v-5.1c-2.7,2.1-6.1,3.3-9.7,3.3c-8.8,0-16-7.2-16-16C1.2,7.3,8.3,0.1,17.2,0.1"/>
</svg>
