<?xml version="1.0" encoding="utf-8"?>
<!-- Generator: Adobe Illustrator 23.0.5, SVG Export Plug-In . SVG Version: 6.00 Build 0)  -->
<svg version="1.1" id="Calque_1" xmlns="http://www.w3.org/2000/svg" xmlns:xlink="http://www.w3.org/1999/xlink" x="0px"
     y="0px"
     viewBox="0 0 189.39 33.79" style="enable-background:new 0 0 189.39 33.79;" xml:space="preserve">
<style type="text/css">
	.st0{fill:#FFFFFF;}
</style>
    <g>
	<path class="st0" d="M37.9,17.25V4.89h6.29c0.61,0,1.13,0.1,1.55,0.3c0.44,0.21,0.79,0.51,1.05,0.9c0.24,0.36,0.41,0.79,0.5,1.26
		c0.09,0.44,0.13,0.95,0.13,1.5c0,0.41-0.02,0.8-0.06,1.17c-0.05,0.4-0.17,0.81-0.36,1.24c-0.22,0.46-0.56,0.85-1.03,1.15
		c-0.47,0.3-1.09,0.45-1.83,0.45h-3.88v4.4H37.9z M43.03,10.66c0.51,0,0.9-0.01,1.16-0.04c0.2-0.02,0.36-0.08,0.5-0.16
		c0.11-0.07,0.19-0.2,0.26-0.38c0.06-0.16,0.13-0.48,0.13-1.06c0-0.53-0.03-0.94-0.08-1.22c-0.05-0.28-0.13-0.41-0.19-0.48
		c-0.04-0.05-0.12-0.12-0.29-0.16c-0.21-0.05-0.5-0.07-0.88-0.07h-3.39v3.58H43.03z"/>
        <path class="st0" d="M38.43,5.42h5.75c0.53,0,0.97,0.08,1.33,0.25c0.35,0.17,0.63,0.4,0.83,0.71c0.2,0.31,0.34,0.66,0.42,1.07
		c0.08,0.41,0.12,0.87,0.12,1.39c0,0.39-0.02,0.76-0.06,1.11c-0.04,0.35-0.15,0.71-0.32,1.08c-0.17,0.37-0.45,0.68-0.84,0.93
		c-0.39,0.25-0.9,0.37-1.54,0.37h-4.41v4.4h-1.28V5.42z M39.71,6.55v4.64h3.31c0.53,0,0.94-0.01,1.22-0.04s0.53-0.11,0.73-0.25
		c0.21-0.14,0.36-0.35,0.47-0.65c0.11-0.3,0.16-0.71,0.16-1.24c0-0.56-0.03-1-0.09-1.32c-0.06-0.32-0.16-0.56-0.3-0.72
		c-0.14-0.17-0.33-0.28-0.58-0.33c-0.25-0.06-0.58-0.08-1-0.08H39.71z"/>
        <path class="st0" d="M58.02,17.34c-1.51,0-2.56-0.32-3.22-0.98c-0.66-0.66-0.98-1.71-0.98-3.21V9.13c0-0.77,0.07-1.42,0.2-1.94
		c0.14-0.56,0.39-1.02,0.74-1.38c0.35-0.36,0.8-0.62,1.36-0.78c0.51-0.14,1.15-0.22,1.91-0.23h1.53c0.76,0.01,1.4,0.09,1.91,0.23
		c0.56,0.16,1.02,0.42,1.36,0.78c0.35,0.36,0.59,0.82,0.74,1.38c0.13,0.51,0.2,1.17,0.2,1.94v4.02c0,1.5-0.32,2.54-0.97,3.21
		c-0.66,0.66-1.71,0.99-3.23,0.99H58.02z M58.02,6.99c-0.45,0-0.81,0.03-1.06,0.1c-0.2,0.05-0.35,0.13-0.45,0.24
		c-0.11,0.12-0.19,0.3-0.25,0.55c-0.07,0.3-0.1,0.72-0.1,1.25v4.02c0,0.5,0.04,0.9,0.12,1.19c0.07,0.24,0.16,0.41,0.27,0.51
		c0.12,0.11,0.28,0.18,0.47,0.22c0.25,0.05,0.59,0.08,1,0.08h1.52c0.41-0.01,0.75-0.04,1.01-0.09c0.19-0.04,0.34-0.11,0.47-0.22
		c0.11-0.1,0.2-0.27,0.26-0.5c0.08-0.29,0.12-0.69,0.12-1.2V9.13c0-0.53-0.03-0.95-0.1-1.25c-0.05-0.24-0.14-0.43-0.25-0.55
		c-0.1-0.11-0.25-0.19-0.45-0.24c-0.26-0.06-0.62-0.1-1.07-0.1H58.02z"/>
        <path class="st0" d="M59.54,5.33c0.71,0.01,1.3,0.08,1.77,0.21c0.47,0.13,0.84,0.34,1.12,0.63c0.28,0.29,0.48,0.67,0.6,1.14
		c0.12,0.47,0.18,1.08,0.18,1.81v4.02c0,1.34-0.27,2.28-0.82,2.83c-0.55,0.55-1.5,0.83-2.85,0.83h-1.52c-1.35,0-2.3-0.28-2.85-0.83
		c-0.55-0.55-0.83-1.5-0.83-2.83V9.13c0-0.73,0.06-1.34,0.18-1.81c0.12-0.47,0.32-0.85,0.6-1.14c0.28-0.29,0.65-0.5,1.12-0.63
		c0.47-0.13,1.06-0.2,1.77-0.21H59.54z M58.02,6.46c-0.49,0-0.89,0.04-1.19,0.11c-0.3,0.08-0.54,0.21-0.72,0.4
		c-0.18,0.19-0.3,0.45-0.38,0.79c-0.08,0.34-0.11,0.79-0.11,1.36v4.02c0,0.55,0.05,1,0.14,1.33c0.1,0.34,0.24,0.59,0.43,0.76
		c0.19,0.17,0.43,0.29,0.72,0.35c0.29,0.06,0.66,0.09,1.11,0.09h1.52c0.46-0.01,0.83-0.04,1.11-0.1c0.28-0.06,0.52-0.17,0.72-0.34
		c0.2-0.17,0.34-0.42,0.43-0.76c0.09-0.34,0.14-0.78,0.14-1.33V9.13c0-0.57-0.04-1.03-0.11-1.36c-0.08-0.34-0.2-0.6-0.37-0.79
		c-0.17-0.19-0.41-0.32-0.72-0.4s-0.71-0.11-1.2-0.11H58.02z"/>
        <polygon class="st0" points="70.66,17.25 70.66,4.89 73,4.89 73,15.06 78.75,15.06 78.75,17.25 	"/>
        <path class="st0" d="M72.47,15.59h5.75v1.13h-7.04V5.42h1.28V15.59z"/>
        <polygon class="st0" points="86.98,17.25 86.98,12.16 82.41,4.89 85.16,4.89 88.21,9.71 91.26,4.89 94.06,4.89 89.33,12.16
		89.33,17.25 	"/>
        <path class="st0" d="M88.8,12v4.72h-1.28V12l-4.14-6.58h1.49l3.34,5.29l3.34-5.29h1.52L88.8,12z"/>
        <polygon class="st0"
                 points="102.4,17.25 102.4,7.08 98.74,7.08 98.74,4.89 108.4,4.89 108.4,7.08 104.74,7.08 104.74,17.25 	"/>
        <path class="st0" d="M104.21,16.72h-1.28V6.55h-3.66V5.42h8.6v1.13h-3.66V16.72z"/>
        <polygon class="st0" points="122.59,17.25 122.59,12.05 117.03,12.05 117.03,17.25 114.69,17.25 114.69,4.89 117.03,4.89
		117.03,9.86 122.59,9.86 122.59,4.89 124.93,4.89 124.93,17.25 	"/>
        <path class="st0" d="M124.4,16.72h-1.28v-5.2h-6.61v5.2h-1.28V5.42h1.28v4.97h6.61V5.42h1.28V16.72z"/>
        <polygon class="st0" points="131.76,17.25 131.76,4.89 136.61,4.89 133.71,3.1 134.97,1.39 138.02,3.71 137.27,4.89 140.09,4.89
		140.09,7.08 134.1,7.08 134.1,9.86 139.83,9.86 139.83,11.98 134.1,11.98 134.1,15.06 140.09,15.06 140.09,17.25 	"/>
        <path class="st0" d="M133.57,10.39h5.72v1.05h-5.72v4.14h5.98v1.13h-7.26V5.42h7.26v1.13h-5.98V10.39z M137.31,3.84l-0.39,0.62
		l-2.44-1.51l0.6-0.81L137.31,3.84z"/>
        <path class="st0" d="M150.99,17.34c-0.86,0-1.55-0.09-2.12-0.27c-0.61-0.2-1.09-0.51-1.44-0.93c-0.34-0.41-0.57-0.92-0.7-1.54
		c-0.12-0.56-0.18-1.28-0.18-2.11V9.29c0-1.53,0.35-2.67,1.04-3.37c0.7-0.71,1.8-1.08,3.38-1.12h1.78c0.78,0,1.44,0.08,1.99,0.23
		c0.58,0.17,1.07,0.44,1.44,0.81c0.37,0.37,0.64,0.86,0.81,1.44c0.15,0.55,0.23,1.21,0.23,2.01v3.19c0,0.53-0.01,0.97-0.05,1.32
		c-0.02,0.23-0.06,0.45-0.11,0.67l1.05,0.7l-1.08,1.79l-0.93-0.63c-0.36,0.33-0.78,0.57-1.25,0.72c-0.59,0.19-1.29,0.29-2.09,0.29
		H150.99z M150.85,6.99c-0.98,0-1.39,0.22-1.56,0.4c-0.18,0.19-0.39,0.63-0.39,1.65v3.68c0,0.59,0.04,1.07,0.11,1.42
		c0.06,0.29,0.16,0.51,0.27,0.64c0.11,0.13,0.27,0.22,0.48,0.27c0.26,0.07,0.63,0.1,1.09,0.1h2.16c0.38,0,0.73-0.05,1.03-0.14
		c0.01,0,0.01,0,0.02-0.01l-3.34-2.17l1.18-1.76l2.96,1.95V8.85c0-0.34-0.03-0.63-0.08-0.88c-0.05-0.2-0.13-0.37-0.25-0.52
		c-0.11-0.14-0.27-0.24-0.5-0.33c-0.26-0.09-0.6-0.14-1.03-0.14H150.85z"/>
        <path class="st0" d="M156.86,16.21l-0.84-0.57c-0.35,0.43-0.8,0.74-1.34,0.91c-0.54,0.18-1.19,0.26-1.93,0.26h-1.76
		c-0.79,0-1.45-0.08-1.96-0.25c-0.51-0.17-0.91-0.42-1.19-0.76c-0.28-0.34-0.48-0.78-0.59-1.31c-0.11-0.53-0.17-1.2-0.17-2V9.29
		c0-1.4,0.3-2.4,0.89-3c0.59-0.6,1.6-0.92,3.01-0.96h1.76c0.73,0,1.35,0.07,1.84,0.21c0.5,0.14,0.9,0.36,1.21,0.67
		c0.31,0.31,0.53,0.71,0.67,1.21c0.14,0.5,0.21,1.13,0.21,1.87v3.19c0,0.51-0.01,0.94-0.04,1.27c-0.03,0.34-0.1,0.65-0.2,0.94
		l0.95,0.63L156.86,16.21z M155.31,13.95c0.04-0.1,0.07-0.23,0.08-0.38c0.01-0.15,0.01-0.32,0.01-0.51v-4.2
		c0-0.38-0.03-0.71-0.1-0.99c-0.07-0.28-0.18-0.53-0.35-0.74c-0.17-0.21-0.41-0.37-0.73-0.49c-0.32-0.12-0.72-0.17-1.21-0.17h-2.16
		c-0.94,0-1.59,0.19-1.95,0.56c-0.36,0.38-0.53,1.05-0.53,2.01v3.68c0,0.63,0.04,1.14,0.12,1.53c0.08,0.39,0.21,0.68,0.4,0.89
		c0.19,0.21,0.43,0.35,0.75,0.43c0.31,0.08,0.72,0.12,1.22,0.12h2.16c0.43,0,0.83-0.05,1.19-0.17c0.36-0.11,0.63-0.29,0.8-0.54
		l-3.53-2.29l0.59-0.87L155.31,13.95z"/>
        <path class="st0" d="M169.22,17.34c-0.81,0-1.46-0.03-1.95-0.08c-0.54-0.06-1.05-0.2-1.5-0.43c-0.5-0.25-0.89-0.66-1.16-1.22
		c-0.26-0.53-0.39-1.2-0.39-2.06V4.89h2.34v8.67c0,0.43,0.03,0.76,0.1,0.98c0.04,0.15,0.12,0.26,0.23,0.34
		c0.1,0.07,0.3,0.16,0.69,0.21c0.39,0.05,0.93,0.07,1.64,0.07c0.68,0,1.2-0.01,1.54-0.04c0.28-0.02,0.51-0.08,0.69-0.18
		c0.13-0.07,0.23-0.18,0.3-0.35c0.06-0.15,0.13-0.45,0.13-1.01V4.89h2.34v8.67c0,0.81-0.12,1.48-0.36,1.99
		c-0.25,0.55-0.63,0.96-1.12,1.22c-0.44,0.24-0.96,0.4-1.53,0.47C170.68,17.31,170.02,17.34,169.22,17.34z"/>
        <path class="st0" d="M173.69,5.42v8.14c0,0.73-0.1,1.32-0.31,1.76c-0.21,0.44-0.5,0.77-0.89,0.98c-0.39,0.21-0.84,0.35-1.35,0.41
		c-0.51,0.07-1.16,0.1-1.93,0.1c-0.78,0-1.42-0.03-1.9-0.08s-0.92-0.18-1.32-0.38c-0.4-0.2-0.71-0.53-0.93-0.98
		c-0.22-0.45-0.33-1.06-0.33-1.82V5.42h1.28v8.14c0,0.48,0.04,0.86,0.12,1.13c0.08,0.27,0.23,0.48,0.44,0.63
		c0.21,0.15,0.52,0.24,0.93,0.29s0.97,0.08,1.7,0.08c0.7,0,1.23-0.01,1.58-0.04c0.35-0.03,0.65-0.11,0.9-0.24
		c0.25-0.13,0.43-0.34,0.54-0.62c0.12-0.29,0.17-0.69,0.17-1.21V5.42H173.69z"/>
        <polygon class="st0" points="181.07,17.25 181.07,4.89 189.39,4.89 189.39,7.08 183.41,7.08 183.41,9.86 189.14,9.86 189.14,11.98
		183.41,11.98 183.41,15.06 189.39,15.06 189.39,17.25 	"/>
        <path class="st0" d="M182.88,10.39h5.72v1.05h-5.72v4.14h5.98v1.13h-7.26V5.42h7.26v1.13h-5.98V10.39z"/>
</g>
    <path class="st0" d="M15.98,0c7.75,0,14.21,5.51,15.67,12.83h-6.54c-0.48-1.39-1.28-2.64-2.31-3.68c-1.76-1.75-4.15-2.83-6.83-2.83
	c-2.68,0-5.07,1.08-6.83,2.83c-1.75,1.76-2.83,4.16-2.83,6.83c0,2.68,1.07,5.07,2.83,6.83c1.76,1.75,4.15,2.83,6.83,2.83
	c2.68,0,5.07-1.08,6.83-2.83c1.02-1.02,1.81-2.26,2.29-3.64h6.54v8.15c0,6.87-5.94,6.47-5.94,6.47l0-5.11
	c-2.69,2.06-6.06,3.28-9.71,3.29C7.15,31.97,0,24.81,0,15.98C0,7.16,7.15,0,15.98,0"/>
    <g>
	<path class="st0" d="M43.48,31.39l-0.73-1.87l-4.33,0.03l-0.62,1.8l-1.08,0.03l3.1-8.74l1.44-0.03l3.31,8.77H43.48z M38.74,28.71
		l3.78-0.07l-1.93-5.01L38.74,28.71z"/>
        <path class="st0" d="M38.42,29.5l-0.67,1.84h-1.03l3.15-8.66h1.39l3.23,8.66h-1.02L42.8,29.5H38.42z M40.59,23.48l-1.91,5.21h3.83
		L40.59,23.48z"/>
        <polygon class="st0" points="52.87,31.39 47.97,23.51 48.04,31.34 47,31.39 46.95,22.67 48.62,22.62 53.52,30.56 53.44,22.67
		54.48,22.62 54.53,31.39 	"/>
        <path class="st0" d="M54.48,31.34h-1.61l-4.86-7.85h-0.02v7.85H47v-8.66h1.62l4.85,7.91h0.02v-7.91h0.98V31.34z"/>
        <polygon class="st0" points="63.57,31.39 58.66,23.51 58.74,31.34 57.7,31.39 57.65,22.67 59.32,22.62 64.21,30.56 64.14,22.67
		65.17,22.62 65.23,31.39 	"/>
        <path class="st0"
              d="M65.17,31.34h-1.61l-4.86-7.85h-0.02v7.85H57.7v-8.66h1.62l4.85,7.91h0.02v-7.91h0.98V31.34z"/>
        <polygon class="st0" points="68.08,31.39 68.03,22.67 73.65,22.62 73.71,23.54 69.07,23.59 69.12,26.49 73.46,26.43 73.51,27.29
		69.07,27.35 69.12,30.47 73.65,30.42 73.71,31.39 	"/>
        <path class="st0" d="M69.07,26.49h4.39v0.81h-4.39v3.18h4.59v0.87h-5.57v-8.66h5.57v0.87h-4.59V26.49z"/>
        <path class="st0" d="M78.77,31.46c-0.8,0-1.44-0.25-1.89-0.73c-0.45-0.49-0.68-1.17-0.68-2.05v-3.35c0-0.6,0.09-1.09,0.27-1.46
		c0.18-0.37,0.43-0.66,0.75-0.85c0.31-0.19,0.69-0.31,1.12-0.38c0.42-0.06,0.94-0.09,1.54-0.09h0.81c0.9,0,1.53,0.2,1.89,0.6
		c0.35,0.4,0.53,1.05,0.53,1.95v0.28l-1.03,0.05l-0.05-0.3c0-0.61-0.1-1.04-0.29-1.27c-0.19-0.22-0.59-0.34-1.18-0.34h-0.55
		c-0.54,0-0.98,0.02-1.32,0.07c-0.32,0.04-0.59,0.13-0.8,0.25c-0.2,0.12-0.35,0.29-0.44,0.52c-0.09,0.23-0.14,0.55-0.14,0.94v2.38
		c0,0.57,0.02,1.03,0.05,1.35c0.03,0.32,0.1,0.6,0.2,0.81c0.1,0.21,0.26,0.38,0.48,0.48c0.22,0.11,0.54,0.16,0.94,0.16h1.17
		c0.41,0,0.75-0.02,1-0.06c0.25-0.04,0.44-0.1,0.59-0.2c0.15-0.09,0.25-0.23,0.31-0.41c0.07-0.18,0.1-0.43,0.1-0.74v-0.69l1.04-0.05
		l0.05,0.86c0,0.48-0.08,0.88-0.22,1.19c-0.15,0.31-0.37,0.54-0.63,0.69c-0.26,0.15-0.58,0.25-0.93,0.3
		c-0.35,0.05-0.77,0.08-1.27,0.08H78.77z"/>
        <path class="st0" d="M78.77,31.41c-0.79,0-1.41-0.24-1.85-0.72c-0.44-0.48-0.66-1.15-0.66-2.01v-3.35c0-0.59,0.09-1.07,0.26-1.44
		c0.17-0.37,0.42-0.64,0.73-0.83s0.68-0.31,1.1-0.37c0.42-0.06,0.93-0.09,1.53-0.09h0.81c0.89,0,1.5,0.19,1.85,0.58
		c0.35,0.39,0.52,1.03,0.52,1.91v0.28h-0.98v-0.24c0-0.63-0.1-1.07-0.3-1.31c-0.2-0.24-0.61-0.36-1.22-0.36h-0.55
		c-0.55,0-0.99,0.02-1.32,0.07c-0.33,0.04-0.61,0.13-0.82,0.25c-0.21,0.12-0.37,0.3-0.46,0.54c-0.1,0.24-0.14,0.56-0.14,0.96v2.38
		c0,0.58,0.02,1.03,0.05,1.36c0.03,0.33,0.1,0.61,0.21,0.83c0.11,0.23,0.28,0.4,0.51,0.51c0.23,0.11,0.55,0.17,0.96,0.17h1.17
		c0.42,0,0.75-0.02,1.01-0.06c0.25-0.04,0.46-0.11,0.61-0.21c0.15-0.1,0.26-0.24,0.33-0.43c0.07-0.19,0.1-0.44,0.1-0.76v-0.69h0.98
		v0.81c0,0.48-0.07,0.87-0.22,1.17c-0.15,0.3-0.35,0.52-0.61,0.67c-0.26,0.15-0.57,0.25-0.91,0.3c-0.35,0.05-0.77,0.07-1.26,0.07
		H78.77z"/>
        <polygon class="st0" points="88.17,31.39 88.12,27.72 84.95,22.7 86.14,22.62 88.75,26.7 91.22,22.65 92.43,22.62 89.2,27.75
		89.21,31.39 	"/>
        <path class="st0" d="M89.15,27.72v3.62h-0.98v-3.62l-3.18-5.05h1.14l2.56,4.05l2.56-4.05h1.17L89.15,27.72z"/>
        <polygon class="st0"
                 points="100.52,31.39 100.47,22.67 101.5,22.62 101.55,30.47 105.91,30.42 105.97,31.39 	"/>
        <path class="st0" d="M101.5,30.47h4.41v0.87h-5.39v-8.66h0.98V30.47z"/>
        <path class="st0" d="M114.58,31.39l-0.73-1.87l-4.33,0.03l-0.62,1.8l-1.08,0.03l3.1-8.74l1.44-0.03l3.31,8.77H114.58z
		 M109.83,28.71l3.78-0.07l-1.93-5.01L109.83,28.71z"/>
        <path class="st0" d="M109.52,29.5l-0.67,1.84h-1.03l3.15-8.66h1.39l3.23,8.66h-1.02l-0.68-1.84H109.52z M111.69,23.48l-1.91,5.21
		h3.83L111.69,23.48z"/>
        <path class="st0" d="M125.99,31.46c-0.8,0-1.44-0.25-1.89-0.73c-0.45-0.49-0.68-1.17-0.68-2.05v-3.35c0-0.6,0.09-1.09,0.27-1.46
		c0.18-0.37,0.43-0.66,0.75-0.85c0.31-0.19,0.69-0.31,1.12-0.38c0.42-0.06,0.94-0.09,1.54-0.09h0.81c0.9,0,1.53,0.2,1.89,0.6
		c0.35,0.4,0.53,1.05,0.53,1.95v0.28l-1.03,0.05l-0.05-0.3c0-0.61-0.1-1.04-0.29-1.27c-0.19-0.22-0.59-0.34-1.18-0.34h-0.55
		c-0.54,0-0.98,0.02-1.32,0.07c-0.32,0.04-0.59,0.13-0.8,0.25c-0.2,0.12-0.35,0.29-0.44,0.52c-0.09,0.23-0.14,0.55-0.14,0.94v2.38
		c0,0.57,0.02,1.03,0.05,1.35c0.03,0.32,0.1,0.6,0.2,0.81c0.1,0.21,0.26,0.38,0.48,0.48c0.22,0.11,0.54,0.16,0.94,0.16h1.17
		c0.41,0,0.75-0.02,1-0.06c0.25-0.04,0.44-0.1,0.59-0.2c0.15-0.09,0.25-0.23,0.31-0.41c0.07-0.18,0.1-0.43,0.1-0.74v-0.69l1.04-0.05
		l0.05,0.86c0,0.48-0.08,0.88-0.22,1.19c-0.15,0.31-0.37,0.54-0.63,0.69c-0.26,0.15-0.58,0.25-0.93,0.3
		c-0.35,0.05-0.77,0.08-1.27,0.08H125.99z"/>
        <path class="st0" d="M125.99,31.41c-0.79,0-1.41-0.24-1.85-0.72c-0.44-0.48-0.66-1.15-0.66-2.01v-3.35c0-0.59,0.09-1.07,0.26-1.44
		c0.17-0.37,0.42-0.64,0.73-0.83s0.68-0.31,1.1-0.37c0.42-0.06,0.93-0.09,1.53-0.09h0.81c0.89,0,1.5,0.19,1.85,0.58
		c0.35,0.39,0.52,1.03,0.52,1.91v0.28h-0.98v-0.24c0-0.63-0.1-1.07-0.3-1.31c-0.2-0.24-0.61-0.36-1.22-0.36h-0.55
		c-0.55,0-0.99,0.02-1.32,0.07c-0.33,0.04-0.61,0.13-0.82,0.25c-0.21,0.12-0.37,0.3-0.46,0.54c-0.1,0.24-0.14,0.56-0.14,0.96v2.38
		c0,0.58,0.02,1.03,0.05,1.36c0.03,0.33,0.1,0.61,0.21,0.83c0.11,0.23,0.28,0.4,0.51,0.51c0.23,0.11,0.55,0.17,0.96,0.17h1.17
		c0.42,0,0.75-0.02,1.01-0.06c0.25-0.04,0.46-0.11,0.61-0.21c0.15-0.1,0.26-0.24,0.33-0.43c0.07-0.19,0.1-0.44,0.1-0.76v-0.69h0.98
		v0.81c0,0.48-0.07,0.87-0.22,1.17c-0.15,0.3-0.35,0.52-0.61,0.67c-0.26,0.15-0.57,0.25-0.91,0.3c-0.35,0.05-0.77,0.07-1.26,0.07
		H125.99z"/>
        <path class="st0" d="M139.11,31.39l-0.73-1.87l-4.33,0.03l-0.62,1.8l-1.08,0.03l3.1-8.74l1.44-0.03l3.31,8.77H139.11z
		 M134.36,28.71l3.78-0.07l-1.93-5.01L134.36,28.71z"/>
        <path class="st0" d="M134.05,29.5l-0.67,1.84h-1.03l3.15-8.66h1.39l3.23,8.66h-1.02l-0.68-1.84H134.05z M136.22,23.48l-1.91,5.21
		h3.83L136.22,23.48z"/>
        <path class="st0" d="M142.53,31.39l-0.05-8.72l4.47-0.05c0.41,0,0.76,0.07,1.04,0.2c0.28,0.13,0.5,0.32,0.66,0.56
		c0.16,0.24,0.27,0.52,0.33,0.84c0.06,0.31,0.09,0.67,0.09,1.08c0,0.3-0.02,0.59-0.04,0.85c-0.03,0.27-0.12,0.56-0.25,0.84
		c-0.13,0.29-0.35,0.54-0.66,0.73c-0.31,0.19-0.71,0.29-1.21,0.29h-3.38l0.05,3.37H142.53z M143.56,27.1l2.49-0.05
		c0.41,0,0.72-0.01,0.93-0.03c0.21-0.02,0.39-0.08,0.54-0.18c0.15-0.1,0.26-0.25,0.34-0.47c0.08-0.22,0.12-0.54,0.12-0.94
		c0-0.43-0.02-0.76-0.07-1c-0.04-0.23-0.12-0.41-0.22-0.53c-0.1-0.12-0.24-0.2-0.42-0.24c-0.18-0.04-0.44-0.06-0.76-0.06h-2.95V27.1
		z"/>
        <path class="st0" d="M142.53,22.67h4.41c0.41,0,0.75,0.06,1.02,0.19c0.27,0.13,0.48,0.31,0.63,0.54c0.15,0.24,0.26,0.51,0.32,0.82
		c0.06,0.31,0.09,0.67,0.09,1.07c0,0.3-0.02,0.58-0.04,0.85c-0.03,0.27-0.11,0.54-0.24,0.83c-0.13,0.29-0.34,0.52-0.64,0.71
		c-0.3,0.19-0.69,0.28-1.19,0.28h-3.38v3.37h-0.98V22.67z M143.51,23.54v3.56h2.54c0.41,0,0.72-0.01,0.94-0.03
		c0.21-0.02,0.4-0.09,0.56-0.19c0.16-0.1,0.28-0.27,0.36-0.5c0.08-0.23,0.12-0.54,0.12-0.95c0-0.43-0.02-0.77-0.07-1.01
		c-0.05-0.24-0.12-0.43-0.23-0.56c-0.11-0.13-0.26-0.21-0.44-0.25c-0.19-0.04-0.44-0.06-0.77-0.06H143.51z"/>
        <polygon class="st0" points="151.96,31.39 151.91,22.67 152.94,22.62 153,31.39 	"/>
        <path class="st0" d="M152.94,31.34h-0.98v-8.66h0.98V31.34z"/>
        <polygon class="st0" points="158.27,31.39 158.22,23.54 155.46,23.59 155.41,22.67 162.06,22.62 162.11,23.54 159.25,23.59
		159.3,31.39 	"/>
        <path class="st0" d="M159.25,31.34h-0.98v-7.8h-2.81v-0.87h6.6v0.87h-2.81V31.34z"/>
        <path class="st0" d="M169.93,31.39l-0.73-1.87l-4.33,0.03l-0.62,1.8l-1.08,0.03l3.1-8.74l1.44-0.03l3.31,8.77H169.93z
		 M165.19,28.71l3.78-0.07l-1.93-5.01L165.19,28.71z"/>
        <path class="st0" d="M164.87,29.5l-0.67,1.84h-1.03l3.15-8.66h1.39l3.23,8.66h-1.02l-0.68-1.84H164.87z M167.05,23.48l-1.91,5.21
		h3.83L167.05,23.48z"/>
        <polygon class="st0"
                 points="173.54,31.39 173.48,22.67 174.52,22.62 174.57,30.47 178.93,30.42 178.98,31.39 	"/>
        <path class="st0" d="M174.52,30.47h4.41v0.87h-5.39v-8.66h0.98V30.47z"/>
        <polygon class="st0" points="181.24,31.39 181.19,22.67 186.81,22.62 186.86,23.54 182.22,23.59 182.28,26.49 186.61,26.43
		186.67,27.29 182.22,27.35 182.28,30.47 186.81,30.42 186.86,31.39 	"/>
        <path class="st0" d="M182.22,26.49h4.39v0.81h-4.39v3.18h4.59v0.87h-5.57v-8.66h5.57v0.87h-4.59V26.49z"/>
</g>
</svg>
